<svg width="411" height="268" xmlns="http://www.w3.org/2000/svg" xmlns:xlink="http://www.w3.org/1999/xlink" xml:space="preserve" overflow="hidden"><defs><clipPath id="clip0"><rect x="0" y="0" width="411" height="268"/></clipPath></defs><g clip-path="url(#clip0)"><path d="M0 0 597.145 0 597.145 335.894 0 335.894Z" fill="#FFFFFF" transform="matrix(1.00065 0 0 1 0 -13.9598)"/><path d="M89.3852 24.8189 89.3852 271.589" stroke="#000000" stroke-width="0.93304" stroke-miterlimit="8" fill="none" fill-rule="evenodd" transform="matrix(1.00065 0 0 1 0 -13.9598)"/><path d="M69.2316 88.6388C69.2316 77.9204 78.338 69.2316 89.5718 69.2316 100.806 69.2316 109.912 77.9204 109.912 88.6388 109.912 99.3572 100.806 108.046 89.5718 108.046 78.338 108.046 69.2316 99.3572 69.2316 88.6388Z" stroke="#FF0000" stroke-width="0.93304" stroke-miterlimit="8" fill="none" fill-rule="evenodd" transform="matrix(1.00065 0 0 1 0 -13.9598)"/><path d="M79.6816 89.012C79.6816 83.4466 84.0262 78.9352 89.3852 78.9352 94.7442 78.9352 99.0888 83.4466 99.0888 89.012 99.0888 94.5774 94.7442 99.0888 89.3852 99.0888 84.0262 99.0888 79.6816 94.5774 79.6816 89.012Z" stroke="#000000" stroke-width="0.93304" stroke-miterlimit="8" fill-rule="evenodd" transform="matrix(1.00065 0 0 1 0 -13.9598)"/><path d="M69.2316 129.319C69.2316 118.395 78.338 109.539 89.5718 109.539 100.806 109.539 109.912 118.395 109.912 129.319 109.912 140.244 100.806 149.1 89.5718 149.1 78.338 149.1 69.2316 140.244 69.2316 129.319Z" stroke="#FF0000" stroke-width="0.93304" stroke-miterlimit="8" fill="none" fill-rule="evenodd" transform="matrix(1.00065 0 0 1 0 -13.9598)"/><path d="M78.9352 130.626C78.9352 124.751 83.6138 119.989 89.3852 119.989 95.1566 119.989 99.8353 124.751 99.8353 130.626 99.8353 136.5 95.1566 141.262 89.3852 141.262 83.6138 141.262 78.9352 136.5 78.9352 130.626Z" stroke="#000000" stroke-width="0.93304" stroke-miterlimit="8" fill-rule="evenodd" transform="matrix(1.00065 0 0 1 0 -13.9598)"/><path d="M0 0 231.431 0.895718" stroke="#000000" stroke-width="0.93304" stroke-miterlimit="8" fill="none" fill-rule="evenodd" transform="matrix(1.00065 0 0 -1 89.443 118.121)"/><path d="M205.455 117.376 286.816 117.376 286.816 141.262 205.455 141.262Z" stroke="#042433" stroke-width="0.93304" stroke-miterlimit="8" fill="#156082" transform="matrix(1.00065 0 0 1 0 -13.9598)"/><path d="M333.095 133.051 333.095 271.44" stroke="#000000" stroke-width="0.93304" stroke-miterlimit="8" fill="none" fill-rule="evenodd" transform="matrix(1.00065 0 0 1 0 -13.9598)"/><path d="M320.779 133.051C320.779 126.868 326.21 121.855 332.909 121.855 339.607 121.855 345.038 126.868 345.038 133.051 345.038 139.235 339.607 144.248 332.909 144.248 326.21 144.248 320.779 139.235 320.779 133.051Z" stroke="#042433" stroke-width="0.93304" stroke-miterlimit="8" fill="#156082" fill-rule="evenodd" transform="matrix(1.00065 0 0 1 0 -13.9598)"/><path d="M53.1833 271.515 346.867 271.515" stroke="#000000" stroke-width="0.93304" stroke-miterlimit="8" fill="none" fill-rule="evenodd" transform="matrix(1.00065 0 0 1 0 -13.9598)"/><path d="M89.3852 119.989 333.021 121.732" stroke="#156082" stroke-width="0.93304" stroke-miterlimit="8" fill="none" fill-rule="evenodd" transform="matrix(1.00065 0 0 1 0 -13.9598)"/><path d="M89.3852 78.9352 205.101 118.161" stroke="#E97132" stroke-width="0.93304" stroke-miterlimit="8" fill="none" fill-rule="evenodd" transform="matrix(1.00065 0 0 1 0 -13.9598)"/><path d="M286.816 119.989 332.834 121.732" stroke="#E97132" stroke-width="0.93304" stroke-miterlimit="8" fill="none" fill-rule="evenodd" transform="matrix(1.00065 0 0 1 0 -13.9598)"/><path d="M0.0300894 0.46555-1.1056 0.53895-1.04867 0.531732-2.17548 0.745693-2.10039 0.724811-4.29183 1.53692-4.20932 1.49672-6.25861 2.75861-6.19277 2.70961-8.02884 4.34632-7.97521 4.28982-9.52697 6.22636-9.48286 6.16056-10.6793 8.32204-10.6448 8.24356-11.4148 10.555-11.3975 10.486-11.6004 11.6745-11.5945 11.6231-11.6641 12.8209-11.6656 12.7481-11.4303 15.1345-11.4463 15.0513-10.7815 17.3627-10.8089 17.2905-9.77591 19.4519-9.81319 19.3877-8.47338 21.3242-8.52194 21.2651-6.93667 22.9018-7.0009 22.8466-5.23152 24.1084-5.3184 24.0596-3.42632 24.8717-3.51012 24.8447-2.53723 25.0587-2.60261 25.0491-1.62204 25.1225-1.6479 25.1213 2.20436 25.1954 3.99322 25.2812 5.79716 25.4677 5.70125 26.3958 3.91007 26.2106 3.93571 26.2126 2.16633 26.1277 2.17972 26.1281-1.67878 26.0539-2.70529 25.9771-3.75369 25.7465-5.73248 24.8972-7.57729 23.5815-9.21884 21.8867-10.6017 19.8879-11.6674 17.6578-12.3547 15.2683-12.5977 12.8033-12.5245 11.5431-12.3113 10.2939-11.5164 7.90785-10.2799 5.67396-8.67887 3.67586-6.7829 1.98572-4.65927 0.678047-2.38795-0.163674-1.19447-0.390291-0.0300894-0.46555ZM5.44582 23.9882 8.81611 26.4484 4.82583 27.6685Z" transform="matrix(1.83816e-16 1 1.00065 -1.83697e-16 323.601 103.043)"/><text font-family="Aptos,Aptos_MSFontService,sans-serif" font-weight="400" font-size="30" transform="matrix(0.373457 0 0 0.373216 38.2047 129)">HTS</text><text font-family="Aptos,Aptos_MSFontService,sans-serif" font-weight="400" font-size="30" transform="matrix(0.373457 0 0 0.373216 38.2047 143)">Spool</text><text font-family="Aptos,Aptos_MSFontService,sans-serif" font-weight="400" font-size="30" transform="matrix(0.373457 0 0 0.373216 31.7671 55)">Fibreglass</text><text font-family="Aptos,Aptos_MSFontService,sans-serif" font-weight="400" font-size="30" transform="matrix(0.373457 0 0 0.373216 31.7671 69)">Spool</text><text font-family="Aptos,Aptos_MSFontService,sans-serif" font-weight="400" font-size="30" transform="matrix(0.373457 0 0 0.373216 226.837 86)">Friction</text><text font-family="Aptos,Aptos_MSFontService,sans-serif" font-weight="400" font-size="30" transform="matrix(0.373457 0 0 0.373216 226.837 99)">brake</text><text font-family="Aptos,Aptos_MSFontService,sans-serif" font-weight="400" font-size="30" transform="matrix(0.373457 0 0 0.373216 357.837 128)">Coil</text><text font-family="Aptos,Aptos_MSFontService,sans-serif" font-weight="400" font-size="30" transform="matrix(0.373457 0 0 0.373216 357.837 141)">Former</text><path d="M353.261 145.508 344.453 142.372 344.766 141.492 353.574 144.628ZM344.569 143.899 341.679 140.889 345.821 140.383Z" fill="#FF0000" transform="matrix(1.00065 0 0 1 0 -13.9598)"/></g></svg>