<svg xmlns="http://www.w3.org/2000/svg" viewBox="0 0 100 100" fill="#4d9fff" fill-rule="evenodd">
  <path d="M 55,2 L 45,2 L 43,14 C 39,15 35,17 32,20 L 21,13 L 13,21 L 20,32 C 17,35 15,39 14,43 L 2,45 L 2,55 L 14,57 C 15,61 17,65 20,68 L 13,79 L 21,87 L 32,80 C 35,83 39,85 43,86 L 45,98 L 55,98 L 57,86 C 61,85 65,83 68,80 L 79,87 L 87,79 L 80,68 C 83,65 85,61 86,57 L 98,55 L 98,45 L 86,43 C 85,39 83,35 80,32 L 87,21 L 79,13 L 68,20 C 65,17 61,15 57,14 Z M 67,50 A 17,17 0 1 0 33,50 A 17,17 0 1 0 67,50 Z" />
</svg>
